<svg width="24" height="24" viewBox="0 0 24 24" fill="none" xmlns="http://www.w3.org/2000/svg">
  <path d="M12 2C6.48 2 2 6.48 2 12C2 17.52 6.48 22 12 22C17.52 22 22 17.52 22 12C22 6.48 17.52 2 12 2ZM12 20C7.58 20 4 16.42 4 12C4 7.58 7.58 4 12 4C16.42 4 20 7.58 20 12C20 16.42 16.42 20 12 20Z" fill="currentColor"/>
  <path d="M15 11C15.5523 11 16 10.5523 16 10C16 9.44772 15.5523 9 15 9C14.4477 9 14 9.44772 14 10C14 10.5523 14.4477 11 15 11Z" fill="currentColor"/>
  <path d="M9 11C9.55228 11 10 10.5523 10 10C10 9.44772 9.55228 9 9 9C8.44772 9 8 9.44772 8 10C8 10.5523 8.44772 11 9 11Z" fill="currentColor"/>
  <path d="M12 17C14.21 17 16 15.21 16 13H8C8 15.21 9.79 17 12 17Z" fill="currentColor"/>
</svg>